# xmcd
#
# Track frame offsets: 
#        150
#        12339
#        28788
#        54803
#        74614
#        85190
#        109661
#        143532
#        171325
#        198219
#        230092
#
# Disc length: 3274 seconds
#
# Revision: 0
# Processed by: cddbd v1.5.1PL0 Copyright (c) Steve Scherf et al.
# Submitted via: ExactAudioCopy v0.95a2
#
DISCID=8e0cc80b
DTITLE=Bob Dylan - American Journey 1956-1966
DYEAR=2004
DGENRE=Blues
TTITLE0=Song to Woody
TTITLE1=Don't Think Twice, It's All Right
TTITLE2=The Lonesome Death of Hattie Carroll
TTITLE3=My Back Pages
TTITLE4=Subterranean Homesick Blues
TTITLE5=Mr.Tambourine Man
TTITLE6=It's Alright,Ma (I'm Only Bleeding)
TTITLE7=Like a Rolling Stone
TTITLE8=Ballad of a Thin Man
TTITLE9=Stuck Inside of Mobile with the Memphis Blues Again
TTITLE10=Most Likely You Go Your Way (and I'll Go Mine)
EXTD=
EXTT0=
EXTT1=
EXTT2=
EXTT3=
EXTT4=
EXTT5=
EXTT6=
EXTT7=
EXTT8=
EXTT9=
EXTT10=
PLAYORDER=
